<?xml version="1.0" encoding="iso-8859-1"?>
<!-- Generator: Adobe Illustrator 16.0.0, SVG Export Plug-In . SVG Version: 6.00 Build 0)  -->
<!DOCTYPE svg PUBLIC "-//W3C//DTD SVG 1.1//EN" "http://www.w3.org/Graphics/SVG/1.1/DTD/svg11.dtd">
<svg xmlns="http://www.w3.org/2000/svg" xmlns:xlink="http://www.w3.org/1999/xlink" version="1.1" id="Capa_1" x="0px" y="0px" width="512px" height="512px" viewBox="0 0 188.097 188.096" style="enable-background:new 0 0 188.097 188.096;" xml:space="preserve">
<g>
	<g>
		<path d="M30.533,56.19c0,0,28.963-15.271,26.912-34.992C55.87,5.88,38.767,6.123,30.533,13.511    C22.297,6.123,5.197,5.88,3.619,21.198C1.573,40.914,30.533,56.19,30.533,56.19z" fill="#FFFFFF"/>
		<path d="M30.533,136.815c-8.236-7.394-25.336-7.63-26.915,7.685c-2.045,19.718,26.915,34.991,26.915,34.991    s28.963-15.273,26.912-34.991C55.87,129.185,38.767,129.421,30.533,136.815z" fill="#FFFFFF"/>
		<path d="M77.539,39.43h103.524c3.89,0,7.034-3.153,7.034-7.04c0-3.887-3.15-7.04-7.034-7.04H77.539c-3.892,0-7.04,3.153-7.04,7.04    C70.499,36.276,73.652,39.43,77.539,39.43z" fill="#FFFFFF"/>
		<path d="M181.068,87.014H77.539c-3.892,0-7.04,3.153-7.04,7.034c0,3.88,3.153,7.037,7.04,7.037h103.524    c3.89,0,7.034-3.15,7.034-7.037C188.097,90.162,184.958,87.014,181.068,87.014z" fill="#FFFFFF"/>
		<path d="M23.748,118.888c1.915,1.602,4.323,2.459,6.785,2.459c0.334,0,0.662-0.012,0.999-0.042    c2.822-0.266,5.411-1.654,7.19-3.854l32.932-40.545c3.677-4.527,2.991-11.171-1.531-14.842c-4.528-3.68-11.183-2.988-14.845,1.531    L29.094,95.828l-11.765-9.865c-4.474-3.753-11.115-3.153-14.866,1.306c-3.741,4.468-3.153,11.118,1.307,14.863L23.748,118.888z" fill="#FFFFFF"/>
		<path d="M181.068,148.667H77.539c-3.892,0-7.04,3.15-7.04,7.04c0,3.883,3.153,7.04,7.04,7.04h103.524    c3.89,0,7.034-3.157,7.034-7.04C188.097,151.817,184.958,148.667,181.068,148.667z" fill="#FFFFFF"/>
	</g>
</g>
<g>
</g>
<g>
</g>
<g>
</g>
<g>
</g>
<g>
</g>
<g>
</g>
<g>
</g>
<g>
</g>
<g>
</g>
<g>
</g>
<g>
</g>
<g>
</g>
<g>
</g>
<g>
</g>
<g>
</g>
</svg>
